<svg xmlns="http://www.w3.org/2000/svg" xmlns:xlink="http://www.w3.org/1999/xlink" version="1.1" id="Your_Icon" x="0px" y="0px" width="100px" height="100px" viewBox="0 0 100 100" enable-background="new 0 0 100 100" xml:space="preserve">
<path fill="#000000" d="M100,29.775c0-7.953-3.097-15.431-8.72-21.055C85.656,3.097,78.18,0,70.227,0  c-7.613,0-14.785,2.844-20.318,8.02c-5.51-5.075-12.613-7.859-20.148-7.859c-7.953,0-15.43,3.097-21.054,8.721  c-11.609,11.608-11.608,30.499,0,42.109l7.581,7.583c-0.757,1.119-1.166,2.437-1.166,3.817c0,1.823,0.709,3.537,1.999,4.825  c1.288,1.289,3.001,1.999,4.825,1.999c0.531,0,1.05-0.066,1.554-0.184c-0.117,0.505-0.184,1.023-0.184,1.554  c0,1.823,0.71,3.536,2,4.824c1.287,1.29,3.001,2,4.824,2c0.534,0,1.054-0.068,1.56-0.186c-0.517,2.223,0.082,4.653,1.809,6.382  c1.289,1.288,3.002,1.998,4.826,1.998c0.531,0,1.052-0.069,1.557-0.187c-0.517,2.221,0.082,4.652,1.811,6.379  c1.288,1.289,3.001,1.999,4.826,1.999c1.425,0,2.782-0.438,3.922-1.245c1.104,0.729,2.396,1.121,3.749,1.121  c1.825,0,3.539-0.708,4.827-1.996c1.49-1.492,2.146-3.507,1.966-5.458c0.86,0.385,1.803,0.585,2.774,0.585  c1.823,0,3.539-0.71,4.827-1.998c1.725-1.725,2.33-4.151,1.819-6.369c0.502,0.115,1.021,0.175,1.548,0.175  c1.821,0,3.535-0.71,4.826-1.997c1.288-1.29,1.998-3.004,1.998-4.827c0-0.961-0.196-1.89-0.57-2.743  c1.983,0.168,3.984-0.544,5.417-1.974c1.288-1.29,1.998-3.003,1.998-4.826c0-1.57-0.529-3.058-1.498-4.264l7.15-7.149  C96.903,45.206,100,37.729,100,29.775z M25.014,65.461c-0.32,0.319-0.688,0.563-1.078,0.766c-0.609,0.319-1.284,0.506-1.992,0.506  c-1.16,0-2.249-0.452-3.068-1.271c-0.82-0.819-1.272-1.91-1.272-3.07c0-0.708,0.187-1.383,0.506-1.994  c0.203-0.389,0.446-0.756,0.766-1.074l0.835-0.836l6.677-6.678c0.819-0.819,1.909-1.271,3.068-1.271s2.25,0.452,3.07,1.271  c1.693,1.693,1.693,4.447,0.002,6.139l-6.679,6.68L25.014,65.461z M33.208,73.655c-0.319,0.319-0.689,0.564-1.08,0.768  c-0.61,0.315-1.282,0.503-1.991,0.503c-1.16,0-2.25-0.451-3.068-1.271c-1.37-1.37-1.611-3.426-0.766-5.061  c0.199-0.387,0.441-0.757,0.766-1.08l0.833-0.833l9.367-9.366c0.819-0.821,1.91-1.273,3.07-1.273c1.159,0,2.249,0.452,3.068,1.273  c0.82,0.819,1.271,1.908,1.271,3.068c0,1.159-0.452,2.25-1.271,3.07l-9.367,9.368L33.208,73.655z M41.402,81.847  c-0.321,0.322-0.691,0.567-1.083,0.77c-0.61,0.318-1.281,0.504-1.987,0.504c-1.16,0-2.25-0.451-3.07-1.271  c-1.368-1.367-1.609-3.423-0.766-5.059c0.199-0.387,0.442-0.758,0.766-1.081l0.833-0.833l6.137-6.135l2.08-2.08l0.368-0.367  c0.819-0.82,1.91-1.271,3.068-1.271c1.16,0,2.25,0.451,3.069,1.27c1.692,1.694,1.692,4.449,0.001,6.14L50.449,72.8l-2.08,2.08  l-6.137,6.139L41.402,81.847z M50.423,89.212l-0.829,0.829c-0.321,0.321-0.692,0.567-1.083,0.771c-0.609,0.314-1.28,0.5-1.985,0.5  c-1.162,0-2.25-0.452-3.07-1.271c-1.368-1.368-1.611-3.421-0.768-5.055c0.199-0.389,0.442-0.761,0.768-1.084l0.83-0.83l6.138-6.137  l0.132-0.132c0.723-0.726,1.66-1.14,2.665-1.232c0.136-0.014,0.268-0.039,0.403-0.039c1.16,0,2.251,0.451,3.072,1.27  c0.948,0.949,1.344,2.229,1.229,3.473c-0.089,0.973-0.485,1.924-1.229,2.667l-0.134,0.133L50.423,89.212z M57.268,89.919  c-0.819,0.819-1.908,1.269-3.07,1.269c-0.641,0-1.258-0.15-1.822-0.414l5.746-5.746C58.864,86.631,58.589,88.596,57.268,89.919z   M81.874,65.312c-0.821,0.819-1.91,1.271-3.07,1.271c-1.159,0-2.249-0.452-3.068-1.271l-16.501-16.5  c-0.485-0.485-1.271-0.486-1.755-0.002l-0.299,0.297c-0.234,0.232-0.364,0.548-0.364,0.879c0,0.329,0.13,0.645,0.362,0.879  l17.851,17.849c0.819,0.82,1.271,1.911,1.271,3.07c0,1.16-0.452,2.251-1.271,3.07c-0.821,0.819-1.91,1.271-3.07,1.271  c-1.159,0-2.249-0.452-3.068-1.271L51.04,56.684C50.806,56.451,50.491,56,50.161,56c0,0-0.001,0-0.002,0  c-0.329,0-0.646,0.453-0.878,0.688l-0.297,0.459c-0.482,0.485-0.481,1.35,0.002,1.833L66.835,76.87c1.691,1.69,1.691,4.466,0,6.159  c-0.819,0.818-1.91,1.28-3.07,1.28c-1.159,0-2.248-0.447-3.066-1.267l-0.715-0.714c0.94-2.439,0.433-5.316-1.533-7.283  c-1.29-1.29-3.004-1.999-4.827-1.999c-0.046,0-0.093,0.006-0.139,0.008c1.698-2.641,1.396-6.207-0.913-8.518  c-1.288-1.288-3.001-1.998-4.824-1.998c-0.325,0-0.647,0.03-0.965,0.075c0.246-0.709,0.38-1.457,0.38-2.23  c0-1.823-0.711-3.537-1.999-4.825c-1.289-1.289-3.002-1.999-4.825-1.999c-1.485,0-2.894,0.478-4.062,1.349  c0.007-1.758-0.656-3.518-1.994-4.856c-1.29-1.288-3.003-1.998-4.826-1.998c-1.822,0-3.537,0.71-4.825,1.998l-6.677,6.677  l-7.492-7.495C-0.179,38.593-0.179,21.278,10.461,10.638c5.156-5.155,12.009-7.994,19.298-7.994c6.862,0,13.333,2.523,18.37,7.12  L25.833,32.063c-2.661,2.661-2.67,6.982-0.02,9.631l1.182,1.181c1.273,1.273,2.978,1.974,4.801,1.974  c1.823,0,3.537-0.71,4.824-1.998l14.467-14.465l30.787,30.788c0.819,0.819,1.271,1.908,1.271,3.068  C83.146,63.401,82.693,64.493,81.874,65.312z M82.521,56.076L52.064,25.651c-0.142-0.141-0.311-0.229-0.489-0.288  c-0.126-0.042-0.256-0.076-0.389-0.076c-0.317,0-0.635,0.122-0.878,0.363l-0.978,0.979L34.864,41.095  c-0.819,0.819-1.908,1.271-3.068,1.271c-1.177,0-2.229-0.431-3.045-1.247l-1.181-1.181c-1.682-1.681-1.672-4.426,0.021-6.119  L48.695,12.71l2.234-2.234c0.08-0.081,0.165-0.156,0.246-0.235c5.127-5.003,11.875-7.759,19.052-7.759  c7.289,0,14.144,2.839,19.297,7.994c5.155,5.155,7.993,12.008,7.993,19.298c0,7.29-2.838,14.143-7.993,19.298L82.521,56.076z"/>
</svg>